<mxfile host="app.diagrams.net" modified="2022-09-20T07:53:02.618Z" agent="5.0 (Windows NT 10.0; WOW64) AppleWebKit/537.36 (KHTML, like Gecko) Chrome/105.0.0.0 Safari/537.36" etag="Rxkfqjxdmn_pwwK5i2z7" version="20.3.3" type="github">
  <diagram id="kdf9DBE07wLOY-Ubia16" name="Page-1">
    <mxGraphModel dx="1422" dy="762" grid="1" gridSize="10" guides="1" tooltips="1" connect="1" arrows="1" fold="1" page="1" pageScale="1" pageWidth="827" pageHeight="1169" math="0" shadow="0">
      <root>
        <mxCell id="0" />
        <mxCell id="1" parent="0" />
        <mxCell id="nAvZ6rqhzzsIQq-Y8E1k-4" style="edgeStyle=orthogonalEdgeStyle;rounded=1;orthogonalLoop=1;jettySize=auto;html=1;entryX=0.5;entryY=1;entryDx=0;entryDy=0;sketch=1;" edge="1" parent="1" source="nAvZ6rqhzzsIQq-Y8E1k-1" target="nAvZ6rqhzzsIQq-Y8E1k-3">
          <mxGeometry relative="1" as="geometry" />
        </mxCell>
        <mxCell id="nAvZ6rqhzzsIQq-Y8E1k-1" value="" style="rounded=1;whiteSpace=wrap;html=1;sketch=1;" vertex="1" parent="1">
          <mxGeometry x="240" y="170" width="120" height="60" as="geometry" />
        </mxCell>
        <mxCell id="nAvZ6rqhzzsIQq-Y8E1k-5" style="edgeStyle=orthogonalEdgeStyle;rounded=1;orthogonalLoop=1;jettySize=auto;html=1;entryX=0.5;entryY=1;entryDx=0;entryDy=0;sketch=1;" edge="1" parent="1" source="nAvZ6rqhzzsIQq-Y8E1k-2" target="nAvZ6rqhzzsIQq-Y8E1k-3">
          <mxGeometry relative="1" as="geometry">
            <mxPoint x="510" y="110" as="targetPoint" />
          </mxGeometry>
        </mxCell>
        <mxCell id="nAvZ6rqhzzsIQq-Y8E1k-2" value="" style="rounded=1;whiteSpace=wrap;html=1;sketch=1;" vertex="1" parent="1">
          <mxGeometry x="680" y="170" width="120" height="60" as="geometry" />
        </mxCell>
        <mxCell id="nAvZ6rqhzzsIQq-Y8E1k-3" value="" style="rounded=1;whiteSpace=wrap;html=1;sketch=1;" vertex="1" parent="1">
          <mxGeometry x="430" y="10" width="200" height="100" as="geometry" />
        </mxCell>
        <mxCell id="nAvZ6rqhzzsIQq-Y8E1k-7" style="edgeStyle=orthogonalEdgeStyle;rounded=1;orthogonalLoop=1;jettySize=auto;html=1;entryX=0.5;entryY=1;entryDx=0;entryDy=0;sketch=1;" edge="1" parent="1" source="nAvZ6rqhzzsIQq-Y8E1k-6" target="nAvZ6rqhzzsIQq-Y8E1k-1">
          <mxGeometry relative="1" as="geometry" />
        </mxCell>
        <mxCell id="nAvZ6rqhzzsIQq-Y8E1k-6" value="" style="rounded=1;whiteSpace=wrap;html=1;sketch=1;" vertex="1" parent="1">
          <mxGeometry x="240" y="290" width="120" height="60" as="geometry" />
        </mxCell>
        <mxCell id="nAvZ6rqhzzsIQq-Y8E1k-12" style="edgeStyle=orthogonalEdgeStyle;rounded=1;orthogonalLoop=1;jettySize=auto;html=1;entryX=0.5;entryY=1;entryDx=0;entryDy=0;sketch=1;" edge="1" parent="1" source="nAvZ6rqhzzsIQq-Y8E1k-8" target="nAvZ6rqhzzsIQq-Y8E1k-1">
          <mxGeometry relative="1" as="geometry">
            <mxPoint x="470" y="250" as="targetPoint" />
            <Array as="points">
              <mxPoint x="470" y="260" />
              <mxPoint x="300" y="260" />
            </Array>
          </mxGeometry>
        </mxCell>
        <mxCell id="nAvZ6rqhzzsIQq-Y8E1k-8" value="" style="rounded=1;whiteSpace=wrap;html=1;sketch=1;" vertex="1" parent="1">
          <mxGeometry x="413.5" y="290" width="120" height="60" as="geometry" />
        </mxCell>
        <mxCell id="nAvZ6rqhzzsIQq-Y8E1k-13" style="edgeStyle=orthogonalEdgeStyle;rounded=1;orthogonalLoop=1;jettySize=auto;html=1;entryX=0.5;entryY=1;entryDx=0;entryDy=0;sketch=1;" edge="1" parent="1" source="nAvZ6rqhzzsIQq-Y8E1k-10" target="nAvZ6rqhzzsIQq-Y8E1k-1">
          <mxGeometry relative="1" as="geometry">
            <Array as="points">
              <mxPoint x="130" y="260" />
              <mxPoint x="300" y="260" />
            </Array>
          </mxGeometry>
        </mxCell>
        <mxCell id="nAvZ6rqhzzsIQq-Y8E1k-10" value="" style="rounded=1;whiteSpace=wrap;html=1;sketch=1;" vertex="1" parent="1">
          <mxGeometry x="70" y="290" width="120" height="60" as="geometry" />
        </mxCell>
        <mxCell id="nAvZ6rqhzzsIQq-Y8E1k-17" style="edgeStyle=orthogonalEdgeStyle;rounded=1;orthogonalLoop=1;jettySize=auto;html=1;entryX=0.5;entryY=1;entryDx=0;entryDy=0;sketch=1;" edge="1" parent="1" source="nAvZ6rqhzzsIQq-Y8E1k-14" target="nAvZ6rqhzzsIQq-Y8E1k-2">
          <mxGeometry relative="1" as="geometry" />
        </mxCell>
        <mxCell id="nAvZ6rqhzzsIQq-Y8E1k-14" value="" style="rounded=1;whiteSpace=wrap;html=1;sketch=1;" vertex="1" parent="1">
          <mxGeometry x="770" y="290" width="120" height="60" as="geometry" />
        </mxCell>
        <mxCell id="nAvZ6rqhzzsIQq-Y8E1k-16" style="edgeStyle=orthogonalEdgeStyle;rounded=1;orthogonalLoop=1;jettySize=auto;html=1;entryX=0.5;entryY=1;entryDx=0;entryDy=0;sketch=1;" edge="1" parent="1" source="nAvZ6rqhzzsIQq-Y8E1k-15" target="nAvZ6rqhzzsIQq-Y8E1k-2">
          <mxGeometry relative="1" as="geometry" />
        </mxCell>
        <mxCell id="nAvZ6rqhzzsIQq-Y8E1k-15" value="" style="rounded=1;whiteSpace=wrap;html=1;sketch=1;" vertex="1" parent="1">
          <mxGeometry x="590" y="290" width="120" height="60" as="geometry" />
        </mxCell>
      </root>
    </mxGraphModel>
  </diagram>
</mxfile>
